<svg width="1363" height="599" xmlns="http://www.w3.org/2000/svg"><g><path d="M-99,-95L-133,16L99,-98Z" fill="#fbfafd" stroke="#fbfafd"/><path d="M-99,-95L99,-98L355,-109Z" fill="#f2f1f8" stroke="#f2f1f8"/><path d="M99,-98L-133,16L86,128Z" fill="#f7f6fb" stroke="#f7f6fb"/><path d="M99,-98L86,128L185,132Z" fill="#efeef7" stroke="#efeef7"/><path d="M99,-98L185,132L221,-81Z" fill="#efeef6" stroke="#efeef6"/><path d="M99,-98L221,-81L355,-109Z" fill="#ecebf4" stroke="#ecebf4"/><path d="M221,-81L185,132L384,25Z" fill="#e9e7f3" stroke="#e9e7f3"/><path d="M221,-81L384,25L355,-109Z" fill="#e6e5f1" stroke="#e6e5f1"/><path d="M355,-109L384,25L559,-55Z" fill="#dfdeed" stroke="#dfdeed"/><path d="M355,-109L559,-55L820,-38Z" fill="#d6d4e8" stroke="#d6d4e8"/><path d="M355,-109L820,-38L1114,-80Z" fill="#c9c4df" stroke="#c9c4df"/><path d="M355,-109L1114,-80L1568,-76Z" fill="#b6a9d2" stroke="#b6a9d2"/><path d="M559,-55L384,25L567,71Z" fill="#dad9eb" stroke="#dad9eb"/><path d="M559,-55L567,71L685,-30Z" fill="#d4d2e7" stroke="#d4d2e7"/><path d="M559,-55L685,-30L820,-38Z" fill="#cecce3" stroke="#cecce3"/><path d="M685,-30L567,71L637,99Z" fill="#d0cee6" stroke="#d0cee6"/><path d="M685,-30L637,99L830,25Z" fill="#cbc7e2" stroke="#cbc7e2"/><path d="M685,-30L830,25L820,-38Z" fill="#c7c2de" stroke="#c7c2de"/><path d="M820,-38L830,25L948,-16Z" fill="#c1b9da" stroke="#c1b9da"/><path d="M820,-38L948,-16L1114,-80Z" fill="#b9afd5" stroke="#b9afd5"/><path d="M948,-16L830,25L958,113Z" fill="#bbb2d7" stroke="#bbb2d7"/><path d="M948,-16L958,113L1171,57Z" fill="#b2a5d1" stroke="#b2a5d1"/><path d="M948,-16L1171,57L1114,-80Z" fill="#b1a2ce" stroke="#b1a2ce"/><path d="M1114,-80L1171,57L1272,25Z" fill="#a897c8" stroke="#a897c8"/><path d="M1114,-80L1272,25L1302,-43Z" fill="#a592c6" stroke="#a592c6"/><path d="M1114,-80L1302,-43L1483,-66Z" fill="#a08bc2" stroke="#a08bc2"/><path d="M1114,-80L1483,-66L1568,-76Z" fill="#9981bd" stroke="#9981bd"/><path d="M1302,-43L1272,25L1374,35Z" fill="#9e88c1" stroke="#9e88c1"/><path d="M1302,-43L1374,35L1483,-66Z" fill="#9981bd" stroke="#9981bd"/><path d="M1483,-66L1374,35L1516,122Z" fill="#927eba" stroke="#927eba"/><path d="M1483,-66L1516,122L1568,-76Z" fill="#8f80b6" stroke="#8f80b6"/><path d="M1568,-76L1516,122L1614,250Z" fill="#877bb4" stroke="#877bb4"/><path d="M-133,16L-78,626L-47,426Z" fill="#d1c9ed" stroke="#d1c9ed"/><path d="M-133,16L-47,426L-38,215Z" fill="#eae7fa" stroke="#eae7fa"/><path d="M-133,16L-38,215L44,172Z" fill="#f5f4fd" stroke="#f5f4fd"/><path d="M-133,16L44,172L86,128Z" fill="#f4f2fb" stroke="#f4f2fb"/><path d="M86,128L44,172L225,207Z" fill="#e8e6f7" stroke="#e8e6f7"/><path d="M86,128L225,207L185,132Z" fill="#e8e6f6" stroke="#e8e6f6"/><path d="M185,132L225,207L384,25Z" fill="#e4e3f3" stroke="#e4e3f3"/><path d="M384,25L225,207L391,277Z" fill="#dcdaf0" stroke="#dcdaf0"/><path d="M384,25L391,277L531,235Z" fill="#d3d1ec" stroke="#d3d1ec"/><path d="M384,25L531,235L567,71Z" fill="#d6d4eb" stroke="#d6d4eb"/><path d="M567,71L531,235L637,99Z" fill="#d0cde8" stroke="#d0cde8"/><path d="M637,99L531,235L693,270Z" fill="#c3c0e3" stroke="#c3c0e3"/><path d="M637,99L693,270L796,218Z" fill="#bebae0" stroke="#bebae0"/><path d="M637,99L796,218L830,25Z" fill="#c4bfe0" stroke="#c4bfe0"/><path d="M830,25L796,218L958,113Z" fill="#bcb3da" stroke="#bcb3da"/><path d="M958,113L796,218L922,242Z" fill="#b1a7d6" stroke="#b1a7d6"/><path d="M958,113L922,242L1022,321Z" fill="#a599d0" stroke="#a599d0"/><path d="M958,113L1022,321L1182,211Z" fill="#a091cc" stroke="#a091cc"/><path d="M958,113L1182,211L1171,57Z" fill="#a999cd" stroke="#a999cd"/><path d="M1171,57L1182,211L1272,25Z" fill="#a38fc7" stroke="#a38fc7"/><path d="M1272,25L1182,211L1236,259Z" fill="#9c87c5" stroke="#9c87c5"/><path d="M1272,25L1236,259L1374,35Z" fill="#9c86c2" stroke="#9c86c2"/><path d="M1374,35L1236,259L1473,252Z" fill="#8e76bd" stroke="#8e76bd"/><path d="M1374,35L1473,252L1516,122Z" fill="#8e79ba" stroke="#8e79ba"/><path d="M1516,122L1473,252L1614,250Z" fill="#7d6db2" stroke="#7d6db2"/><path d="M-38,215L-47,426L72,346Z" fill="#d1ccef" stroke="#d1ccef"/><path d="M-38,215L72,346L44,172Z" fill="#e0ddf5" stroke="#e0ddf5"/><path d="M44,172L72,346L225,207Z" fill="#dbd9f3" stroke="#dbd9f3"/><path d="M225,207L72,346L212,425Z" fill="#c8c3ea" stroke="#c8c3ea"/><path d="M225,207L212,425L391,277Z" fill="#c7c3ea" stroke="#c7c3ea"/><path d="M391,277L212,425L434,344Z" fill="#b9b2e1" stroke="#b9b2e1"/><path d="M391,277L434,344L531,235Z" fill="#bfbce6" stroke="#bfbce6"/><path d="M531,235L434,344L553,409Z" fill="#b3acde" stroke="#b3acde"/><path d="M531,235L553,409L679,336Z" fill="#aea8db" stroke="#aea8db"/><path d="M531,235L679,336L693,270Z" fill="#b4b0df" stroke="#b4b0df"/><path d="M693,270L679,336L786,341Z" fill="#a7a0d7" stroke="#a7a0d7"/><path d="M693,270L786,341L796,218Z" fill="#aba6d9" stroke="#aba6d9"/><path d="M796,218L786,341L922,242Z" fill="#a89fd5" stroke="#a89fd5"/><path d="M922,242L786,341L1022,321Z" fill="#9b90cf" stroke="#9b90cf"/><path d="M1182,211L1022,321L1162,394Z" fill="#8a78c2" stroke="#8a78c2"/><path d="M1182,211L1162,394L1236,259Z" fill="#8874c0" stroke="#8874c0"/><path d="M1236,259L1162,394L1286,390Z" fill="#7a61b7" stroke="#7a61b7"/><path d="M1236,259L1286,390L1473,252Z" fill="#7c64b8" stroke="#7c64b8"/><path d="M1473,252L1286,390L1433,387Z" fill="#6e50ae" stroke="#6e50ae"/><path d="M1473,252L1433,387L1534,327Z" fill="#6c56ad" stroke="#6c56ad"/><path d="M1473,252L1534,327L1614,250Z" fill="#7061ae" stroke="#7061ae"/><path d="M1614,250L1534,327L1544,540Z" fill="#5b47a1" stroke="#5b47a1"/><path d="M1614,250L1544,540L1577,730Z" fill="#3e1f8c" stroke="#3e1f8c"/><path d="M-47,426L-78,626L-50,549Z" fill="#aa93d2" stroke="#aa93d2"/><path d="M-47,426L-50,549L59,584Z" fill="#aa94d3" stroke="#aa94d3"/><path d="M-47,426L59,584L72,346Z" fill="#b6a6db" stroke="#b6a6db"/><path d="M72,346L59,584L212,425Z" fill="#b1a1d9" stroke="#b1a1d9"/><path d="M212,425L59,584L167,573Z" fill="#a089cd" stroke="#a089cd"/><path d="M212,425L167,573L416,549Z" fill="#9c86cb" stroke="#9c86cb"/><path d="M212,425L416,549L434,344Z" fill="#a697d3" stroke="#a697d3"/><path d="M434,344L416,549L553,409Z" fill="#9f90d0" stroke="#9f90d0"/><path d="M553,409L416,549L480,553Z" fill="#907bc5" stroke="#907bc5"/><path d="M553,409L480,553L721,471Z" fill="#8f7bc4" stroke="#8f7bc4"/><path d="M553,409L721,471L679,336Z" fill="#998ccd" stroke="#998ccd"/><path d="M679,336L721,471L786,341Z" fill="#998ccd" stroke="#998ccd"/><path d="M786,341L721,471L850,505Z" fill="#8875c1" stroke="#8875c1"/><path d="M786,341L850,505L927,514Z" fill="#806abb" stroke="#806abb"/><path d="M786,341L927,514L1022,321Z" fill="#8976c1" stroke="#8976c1"/><path d="M1022,321L927,514L1162,394Z" fill="#7b63b8" stroke="#7b63b8"/><path d="M1162,394L927,514L1131,571Z" fill="#6746a9" stroke="#6746a9"/><path d="M1162,394L1131,571L1314,522Z" fill="#5d38a2" stroke="#5d38a2"/><path d="M1162,394L1314,522L1286,390Z" fill="#6644a8" stroke="#6644a8"/><path d="M1286,390L1314,522L1433,387Z" fill="#5f3ba4" stroke="#5f3ba4"/><path d="M1433,387L1314,522L1465,551Z" fill="#502599" stroke="#502599"/><path d="M1433,387L1465,551L1544,540Z" fill="#482393" stroke="#482393"/><path d="M1433,387L1544,540L1534,327Z" fill="#56399d" stroke="#56399d"/><path d="M-50,549L-78,626L59,584Z" fill="#9d81c9" stroke="#9d81c9"/><path d="M59,584L-78,626L69,648Z" fill="#9477c3" stroke="#9477c3"/><path d="M59,584L69,648L167,573Z" fill="#9376c3" stroke="#9376c3"/><path d="M167,573L69,648L201,722Z" fill="#8770ba" stroke="#8770ba"/><path d="M167,573L201,722L356,659Z" fill="#806ab7" stroke="#806ab7"/><path d="M167,573L356,659L416,549Z" fill="#886cbe" stroke="#886cbe"/><path d="M416,549L356,659L497,637Z" fill="#7d5fb6" stroke="#7d5fb6"/><path d="M416,549L497,637L480,553Z" fill="#8266ba" stroke="#8266ba"/><path d="M480,553L497,637L659,692Z" fill="#7257af" stroke="#7257af"/><path d="M480,553L659,692L721,471Z" fill="#795db5" stroke="#795db5"/><path d="M721,471L659,692L839,626Z" fill="#6b4cac" stroke="#6b4cac"/><path d="M721,471L839,626L850,505Z" fill="#7357b2" stroke="#7357b2"/><path d="M850,505L839,626L927,514Z" fill="#6b4cac" stroke="#6b4cac"/><path d="M927,514L839,626L971,702Z" fill="#5b35a0" stroke="#5b35a0"/><path d="M927,514L971,702L1131,571Z" fill="#572f9d" stroke="#572f9d"/><path d="M1131,571L971,702L1168,673Z" fill="#462191" stroke="#462191"/><path d="M1131,571L1168,673L1254,629Z" fill="#44178f" stroke="#44178f"/><path d="M1131,571L1254,629L1314,522Z" fill="#4a1e95" stroke="#4a1e95"/><path d="M1314,522L1254,629L1392,630Z" fill="#400e8d" stroke="#400e8d"/><path d="M1314,522L1392,630L1465,551Z" fill="#400e8d" stroke="#400e8d"/><path d="M1465,551L1392,630L1577,730Z" fill="#2a007e" stroke="#2a007e"/><path d="M1465,551L1577,730L1544,540Z" fill="#2d0280" stroke="#2d0280"/><path d="M-78,626L201,722L69,648Z" fill="#8875ba" stroke="#8875ba"/><path d="M201,722L1577,730L971,702Z" fill="#453490" stroke="#453490"/><path d="M201,722L971,702L659,692Z" fill="#5e52a1" stroke="#5e52a1"/><path d="M201,722L659,692L356,659Z" fill="#6e60ab" stroke="#6e60ab"/><path d="M356,659L659,692L497,637Z" fill="#6e59ac" stroke="#6e59ac"/><path d="M659,692L971,702L839,626Z" fill="#553e9c" stroke="#553e9c"/><path d="M971,702L1577,730L1168,673Z" fill="#2f1281" stroke="#2f1281"/><path d="M1168,673L1577,730L1392,630Z" fill="#2a037d" stroke="#2a037d"/><path d="M1168,673L1392,630L1254,629Z" fill="#390e88" stroke="#390e88"/></g></svg>