<svg width="1363" height="643" xmlns="http://www.w3.org/2000/svg"><g><path d="M-88,-63L-134,782L-117,654Z" fill="#717080" stroke="#717080"/><path d="M-88,-63L-117,654L-71,218Z" fill="#bc8071" stroke="#bc8071"/><path d="M-88,-63L-71,218L-42,86Z" fill="#c12c4c" stroke="#c12c4c"/><path d="M-88,-63L-42,86L135,-68Z" fill="#a60e46" stroke="#a60e46"/><path d="M-88,-63L135,-68L523,-111Z" fill="#a52942" stroke="#a52942"/><path d="M135,-68L-42,86L41,108Z" fill="#cc294f" stroke="#cc294f"/><path d="M135,-68L41,108L173,-33Z" fill="#c62d4e" stroke="#c62d4e"/><path d="M135,-68L173,-33L372,-41Z" fill="#bb3245" stroke="#bb3245"/><path d="M135,-68L372,-41L523,-111Z" fill="#b54848" stroke="#b54848"/><path d="M173,-33L41,108L260,40Z" fill="#df4053" stroke="#df4053"/><path d="M173,-33L260,40L372,-41Z" fill="#d24447" stroke="#d24447"/><path d="M372,-41L260,40L370,61Z" fill="#e55d52" stroke="#e55d52"/><path d="M372,-41L370,61L490,80Z" fill="#ee735c" stroke="#ee735c"/><path d="M372,-41L490,80L523,-111Z" fill="#d06b5d" stroke="#d06b5d"/><path d="M523,-111L490,80L653,-33Z" fill="#d17c6b" stroke="#d17c6b"/><path d="M523,-111L653,-33L875,-113Z" fill="#a57b69" stroke="#a57b69"/><path d="M523,-111L875,-113L927,-122Z" fill="#827369" stroke="#827369"/><path d="M653,-33L490,80L643,134Z" fill="#f89877" stroke="#f89877"/><path d="M653,-33L643,134L780,97Z" fill="#f09f7c" stroke="#f09f7c"/><path d="M653,-33L780,97L875,-113Z" fill="#b68075" stroke="#b68075"/><path d="M875,-113L780,97L935,16Z" fill="#a87c79" stroke="#a87c79"/><path d="M875,-113L935,16L927,-122Z" fill="#766571" stroke="#766571"/><path d="M927,-122L935,16L1076,-23Z" fill="#766076" stroke="#766076"/><path d="M927,-122L1076,-23L1334,-110Z" fill="#4f4079" stroke="#4f4079"/><path d="M1076,-23L935,16L1172,112Z" fill="#8f6788" stroke="#8f6788"/><path d="M1076,-23L1172,112L1309,85Z" fill="#a55383" stroke="#a55383"/><path d="M1076,-23L1309,85L1334,-110Z" fill="#873275" stroke="#873275"/><path d="M1334,-110L1309,85L1452,57Z" fill="#a91f6c" stroke="#a91f6c"/><path d="M1334,-110L1452,57L1450,-82Z" fill="#940560" stroke="#940560"/><path d="M1450,-82L1452,57L1595,-39Z" fill="#ae0b5b" stroke="#ae0b5b"/><path d="M1595,-39L1452,57L1596,69Z" fill="#d01b5c" stroke="#d01b5c"/><path d="M1595,-39L1596,69L1632,718Z" fill="#ec7d7c" stroke="#ec7d7c"/><path d="M-42,86L-71,218L41,108Z" fill="#ca464b" stroke="#ca464b"/><path d="M41,108L-71,218L46,268Z" fill="#d06b5d" stroke="#d06b5d"/><path d="M41,108L46,268L279,177Z" fill="#e77f5e" stroke="#e77f5e"/><path d="M41,108L279,177L260,40Z" fill="#f1614f" stroke="#f1614f"/><path d="M260,40L279,177L370,61Z" fill="#fa6f51" stroke="#fa6f51"/><path d="M370,61L279,177L422,206Z" fill="#fd9759" stroke="#fd9759"/><path d="M370,61L422,206L490,80Z" fill="#fe965d" stroke="#fe965d"/><path d="M490,80L422,206L473,194Z" fill="#feb569" stroke="#feb569"/><path d="M490,80L473,194L643,134Z" fill="#ffb46e" stroke="#ffb46e"/><path d="M643,134L473,194L682,240Z" fill="#fada81" stroke="#fada81"/><path d="M643,134L682,240L780,97Z" fill="#eecb7d" stroke="#eecb7d"/><path d="M780,97L682,240L883,227Z" fill="#ddd689" stroke="#ddd689"/><path d="M780,97L883,227L934,210Z" fill="#c9c988" stroke="#c9c988"/><path d="M780,97L934,210L935,16Z" fill="#c5a07d" stroke="#c5a07d"/><path d="M935,16L934,210L1104,228Z" fill="#aca884" stroke="#aca884"/><path d="M935,16L1104,228L1172,112Z" fill="#9d8586" stroke="#9d8586"/><path d="M1172,112L1104,228L1255,200Z" fill="#a7928c" stroke="#a7928c"/><path d="M1172,112L1255,200L1309,85Z" fill="#b26778" stroke="#b26778"/><path d="M1309,85L1255,200L1392,280Z" fill="#be7a81" stroke="#be7a81"/><path d="M1309,85L1392,280L1452,57Z" fill="#c84f6d" stroke="#c84f6d"/><path d="M1452,57L1392,280L1536,205Z" fill="#d46070" stroke="#d46070"/><path d="M1452,57L1536,205L1596,69Z" fill="#df395d" stroke="#df395d"/><path d="M1596,69L1536,205L1601,392Z" fill="#e77373" stroke="#e77373"/><path d="M1596,69L1601,392L1632,718Z" fill="#cf7e8d" stroke="#cf7e8d"/><path d="M-71,218L-117,654L-66,531Z" fill="#726a84" stroke="#726a84"/><path d="M-71,218L-66,531L-46,431Z" fill="#a47e80" stroke="#a47e80"/><path d="M-71,218L-46,431L46,268Z" fill="#ca8079" stroke="#ca8079"/><path d="M46,268L-46,431L50,371Z" fill="#c48481" stroke="#c48481"/><path d="M46,268L50,371L205,342Z" fill="#e19781" stroke="#e19781"/><path d="M46,268L205,342L279,177Z" fill="#efa679" stroke="#efa679"/><path d="M279,177L205,342L346,425Z" fill="#fab77c" stroke="#fab77c"/><path d="M279,177L346,425L422,206Z" fill="#fcc87f" stroke="#fcc87f"/><path d="M422,206L346,425L573,365Z" fill="#fade92" stroke="#fade92"/><path d="M422,206L573,365L473,194Z" fill="#ffe58f" stroke="#ffe58f"/><path d="M473,194L573,365L682,240Z" fill="#fcf29b" stroke="#fcf29b"/><path d="M682,240L573,365L716,405Z" fill="#eff8a8" stroke="#eff8a8"/><path d="M682,240L716,405L808,361Z" fill="#e2f6ab" stroke="#e2f6ab"/><path d="M682,240L808,361L883,227Z" fill="#dbf1a6" stroke="#dbf1a6"/><path d="M883,227L808,361L929,331Z" fill="#c7e9ab" stroke="#c7e9ab"/><path d="M883,227L929,331L934,210Z" fill="#bde4a5" stroke="#bde4a5"/><path d="M934,210L929,331L1104,228Z" fill="#acd9a8" stroke="#acd9a8"/><path d="M1104,228L929,331L1106,325Z" fill="#a1cdb2" stroke="#a1cdb2"/><path d="M1104,228L1106,325L1255,200Z" fill="#a3b4a9" stroke="#a3b4a9"/><path d="M1255,200L1106,325L1220,393Z" fill="#a9aead" stroke="#a9aead"/><path d="M1255,200L1220,393L1392,280Z" fill="#b99aa2" stroke="#b99aa2"/><path d="M1392,280L1220,393L1458,394Z" fill="#b68ca3" stroke="#b68ca3"/><path d="M1392,280L1458,394L1536,205Z" fill="#d58091" stroke="#d58091"/><path d="M1536,205L1458,394L1601,392Z" fill="#dc808f" stroke="#dc808f"/><path d="M-46,431L-66,531L112,535Z" fill="#745a8e" stroke="#745a8e"/><path d="M-46,431L112,535L50,371Z" fill="#977e86" stroke="#977e86"/><path d="M50,371L112,535L186,498Z" fill="#9b858d" stroke="#9b858d"/><path d="M50,371L186,498L205,342Z" fill="#c69d89" stroke="#c69d89"/><path d="M205,342L186,498L346,425Z" fill="#c6ab85" stroke="#c6ab85"/><path d="M346,425L186,498L368,539Z" fill="#a69d8f" stroke="#a69d8f"/><path d="M346,425L368,539L480,487Z" fill="#abb69a" stroke="#abb69a"/><path d="M346,425L480,487L573,365Z" fill="#cbda9c" stroke="#cbda9c"/><path d="M573,365L480,487L720,557Z" fill="#aeddaf" stroke="#aeddaf"/><path d="M573,365L720,557L716,405Z" fill="#b6efae" stroke="#b6efae"/><path d="M716,405L720,557L776,522Z" fill="#8ed1bb" stroke="#8ed1bb"/><path d="M716,405L776,522L808,361Z" fill="#abebb2" stroke="#abebb2"/><path d="M808,361L776,522L946,477Z" fill="#8adeb5" stroke="#8adeb5"/><path d="M808,361L946,477L929,331Z" fill="#a6e6b5" stroke="#a6e6b5"/><path d="M929,331L946,477L1106,325Z" fill="#95d8b7" stroke="#95d8b7"/><path d="M1106,325L946,477L1144,528Z" fill="#5fbfbf" stroke="#5fbfbf"/><path d="M1106,325L1144,528L1220,393Z" fill="#77b0ba" stroke="#77b0ba"/><path d="M1220,393L1144,528L1334,544Z" fill="#5a86bc" stroke="#5a86bc"/><path d="M1220,393L1334,544L1458,394Z" fill="#8285a9" stroke="#8285a9"/><path d="M1458,394L1334,544L1463,488Z" fill="#7f66a6" stroke="#7f66a6"/><path d="M1458,394L1463,488L1554,505Z" fill="#916d9c" stroke="#916d9c"/><path d="M1458,394L1554,505L1601,392Z" fill="#ab7795" stroke="#ab7795"/><path d="M1601,392L1554,505L1632,718Z" fill="#924597" stroke="#924597"/><path d="M-66,531L-117,654L80,691Z" fill="#931775" stroke="#931775"/><path d="M-66,531L80,691L112,535Z" fill="#933682" stroke="#933682"/><path d="M112,535L80,691L218,651Z" fill="#b6357d" stroke="#b6357d"/><path d="M112,535L218,651L186,498Z" fill="#a05d8b" stroke="#a05d8b"/><path d="M186,498L218,651L368,539Z" fill="#aa6c87" stroke="#aa6c87"/><path d="M368,539L218,651L385,683Z" fill="#c75a7c" stroke="#c75a7c"/><path d="M368,539L385,683L480,487Z" fill="#b38c94" stroke="#b38c94"/><path d="M480,487L385,683L503,733Z" fill="#ce718b" stroke="#ce718b"/><path d="M480,487L503,733L720,557Z" fill="#bb9aa4" stroke="#bb9aa4"/><path d="M720,557L503,733L717,695Z" fill="#d07b97" stroke="#d07b97"/><path d="M720,557L717,695L774,726Z" fill="#c07a9b" stroke="#c07a9b"/><path d="M720,557L774,726L776,522Z" fill="#a497ab" stroke="#a497ab"/><path d="M776,522L774,726L1007,704Z" fill="#a374a1" stroke="#a374a1"/><path d="M776,522L1007,704L946,477Z" fill="#729bb6" stroke="#729bb6"/><path d="M946,477L1007,704L1075,659Z" fill="#6f72b0" stroke="#6f72b0"/><path d="M946,477L1075,659L1144,528Z" fill="#4e87c2" stroke="#4e87c2"/><path d="M1144,528L1075,659L1319,641Z" fill="#6c51af" stroke="#6c51af"/><path d="M1144,528L1319,641L1334,544Z" fill="#6b53b0" stroke="#6b53b0"/><path d="M1334,544L1319,641L1457,650Z" fill="#8c279c" stroke="#8c279c"/><path d="M1334,544L1457,650L1463,488Z" fill="#7f39a3" stroke="#7f39a3"/><path d="M1463,488L1457,650L1554,505Z" fill="#85409f" stroke="#85409f"/><path d="M1554,505L1457,650L1632,718Z" fill="#ae1786" stroke="#ae1786"/><path d="M-117,654L-134,782L80,691Z" fill="#b1005f" stroke="#b1005f"/><path d="M80,691L-134,782L57,866Z" fill="#cf0150" stroke="#cf0150"/><path d="M80,691L57,866L245,860Z" fill="#e81d4f" stroke="#e81d4f"/><path d="M80,691L245,860L218,651Z" fill="#e82760" stroke="#e82760"/><path d="M218,651L245,860L385,683Z" fill="#f2395d" stroke="#f2395d"/><path d="M385,683L245,860L367,882Z" fill="#fc4550" stroke="#fc4550"/><path d="M385,683L367,882L474,824Z" fill="#fe575b" stroke="#fe575b"/><path d="M385,683L474,824L503,733Z" fill="#fc606e" stroke="#fc606e"/><path d="M503,733L474,824L706,797Z" fill="#fd7174" stroke="#fd7174"/><path d="M503,733L706,797L717,695Z" fill="#f27882" stroke="#f27882"/><path d="M717,695L706,797L774,726Z" fill="#e27687" stroke="#e27687"/><path d="M774,726L706,797L848,770Z" fill="#de7283" stroke="#de7283"/><path d="M774,726L848,770L1007,704Z" fill="#be698c" stroke="#be698c"/><path d="M1007,704L848,770L1018,799Z" fill="#b26087" stroke="#b26087"/><path d="M1007,704L1018,799L1075,659Z" fill="#975097" stroke="#975097"/><path d="M1075,659L1018,799L1121,873Z" fill="#9c488c" stroke="#9c488c"/><path d="M1075,659L1121,873L1265,784Z" fill="#a33789" stroke="#a33789"/><path d="M1075,659L1265,784L1319,641Z" fill="#962995" stroke="#962995"/><path d="M1319,641L1265,784L1457,650Z" fill="#a90f8a" stroke="#a90f8a"/><path d="M1457,650L1265,784L1383,869Z" fill="#c60a75" stroke="#c60a75"/><path d="M1457,650L1383,869L1562,851Z" fill="#d60065" stroke="#d60065"/><path d="M1457,650L1562,851L1632,718Z" fill="#de006a" stroke="#de006a"/><path d="M57,866L367,882L245,860Z" fill="#f42e3c" stroke="#f42e3c"/><path d="M367,882L1121,873L706,797Z" fill="#e8766b" stroke="#e8766b"/><path d="M367,882L706,797L474,824Z" fill="#ff6b62" stroke="#ff6b62"/><path d="M706,797L1121,873L848,770Z" fill="#c36779" stroke="#c36779"/><path d="M848,770L1121,873L1018,799Z" fill="#ab587c" stroke="#ab587c"/><path d="M1121,873L1383,869L1265,784Z" fill="#b4226d" stroke="#b4226d"/></g></svg>